<?xml version="1.0" standalone="no"?>
<!DOCTYPE svg PUBLIC "-//W3C//DTD SVG 20010904//EN"
 "http://www.w3.org/TR/2001/REC-SVG-20010904/DTD/svg10.dtd">
<svg version="1.0" xmlns="http://www.w3.org/2000/svg"
 width="250.000000pt" height="250.000000pt" viewBox="0 0 250.000000 250.000000"
 preserveAspectRatio="xMidYMid meet">
<metadata>
Created by potrace 1.11, written by Peter Selinger 2001-2013
</metadata>
<g transform="translate(0.000000,250.000000) scale(0.100000,-0.100000)"
fill="#000000" stroke="none">
<path d="M1082 2490 c-469 -66 -867 -396 -1017 -844 -49 -146 -58 -210 -58
-396 0 -128 4 -195 16 -248 60 -263 178 -475 364 -652 175 -168 369 -271 615
-327 102 -23 394 -23 496 0 504 115 864 475 979 979 23 102 23 394 0 496 -56
246 -159 440 -327 615 -178 186 -396 308 -652 363 -86 18 -326 27 -416 14z
m749 -298 c14 -20 89 -147 166 -282 77 -135 192 -336 256 -446 110 -189 129
-236 108 -259 -4 -6 -22 -35 -38 -65 -17 -30 -71 -125 -120 -210 -50 -85 -102
-175 -116 -200 -59 -105 -212 -369 -244 -423 l-34 -57 -558 0 c-431 0 -561 3
-573 13 -8 6 -45 64 -80 127 -36 63 -89 156 -118 205 -29 50 -64 110 -78 135
-105 186 -144 254 -180 314 -23 37 -42 70 -42 72 0 2 -14 26 -30 54 -17 28
-30 60 -30 72 0 12 19 53 41 92 73 125 385 668 430 746 23 41 53 92 66 113
l23 37 563 0 562 0 26 -38z"/>
<path d="M901 2126 c8 -7 421 -246 425 -246 2 0 33 -17 67 -38 34 -21 85 -52
114 -69 l51 -31 20 52 c11 28 45 115 75 194 l55 142 -406 0 c-223 0 -403 -2
-401 -4z"/>
<path d="M746 2008 c-17 -219 -53 -803 -51 -806 3 -3 583 343 749 446 l38 24
-73 42 c-41 23 -150 87 -244 141 -310 179 -407 235 -410 235 -2 0 -6 -37 -9
-82z"/>
<path d="M1767 1998 c-72 -178 -117 -291 -117 -298 0 -5 15 -17 33 -28 109
-66 486 -282 490 -282 3 0 -9 26 -27 58 -18 31 -104 181 -191 332 -86 151
-158 276 -160 278 -1 1 -13 -26 -28 -60z"/>
<path d="M466 1660 c-91 -159 -166 -293 -166 -296 0 -3 -13 -25 -30 -48 l-29
-43 92 -28 c51 -15 128 -38 171 -51 43 -14 80 -23 83 -21 2 2 10 109 18 238 8
129 20 301 25 383 6 82 8 151 6 153 -2 2 -78 -127 -170 -287z"/>
<path d="M1170 1363 c-195 -118 -372 -224 -392 -236 -21 -12 -38 -24 -38 -27
1 -7 782 -472 786 -467 2 2 3 216 2 474 l-3 471 -355 -215z"/>
<path d="M1630 1118 l0 -463 88 86 c48 47 183 175 300 283 116 109 212 201
212 205 0 4 -53 38 -117 75 -341 199 -476 276 -479 276 -2 0 -4 -208 -4 -462z"/>
<path d="M283 1143 c3 -5 75 -132 162 -283 87 -151 164 -284 172 -295 14 -18
15 -13 9 55 -18 236 -38 436 -44 440 -9 8 -55 22 -183 59 -115 33 -122 35
-116 24z"/>
<path d="M700 963 c0 -21 5 -78 10 -128 5 -49 14 -148 20 -220 18 -227 21
-246 39 -241 9 2 59 16 111 30 52 14 151 41 220 60 69 18 173 46 232 61 59 15
105 31 103 35 -4 7 -71 47 -192 117 -18 10 -133 78 -255 152 -123 74 -238 143
-255 153 l-33 20 0 -39z"/>
<path d="M1910 786 c-107 -101 -212 -201 -232 -223 l-38 -39 68 -67 68 -67
166 290 c92 159 166 290 165 290 -1 0 -90 -83 -197 -184z"/>
<path d="M1455 455 c-49 -14 -155 -42 -235 -64 l-145 -39 305 -1 304 -1 -64
65 c-35 36 -67 65 -70 65 -3 -1 -45 -12 -95 -25z"/>
</g>
</svg>
